# xmcd CD database file
#
# Track frame offsets:
#	150
#	27467
#	58542
#	85195
#	110375
#	135390
#	162220
#	199300
#	222287
#	273835
#	309707
#
# Disc length: 4339 seconds
#
# Revision: 2
# Processed by: cddbd v1.5.2PL0 Copyright (c) Steve Scherf et al.
# Submitted via: CDex 1.50
#
DISCID=9710f10b
DTITLE=Hiram Bullock Band - Manny's Car Wash
DYEAR=1996
DGENRE=Blues
TTITLE0=I Can't Next To you
TTITLE1=I Shot The Sheriff
TTITLE2=Little Wing
TTITLE3=Got To Give It Up
TTITLE4=Angelina
TTITLE5=Bean Burrito
TTITLE6=Red House
TTITLE7=All Along The Watchtower
TTITLE8=Dear Prudence
TTITLE9=Window Shoppin'
TTITLE10=Higher Ground
EXTD=YEAR: 1996
EXTT0=
EXTT1=
EXTT2=
EXTT3=
EXTT4=
EXTT5=
EXTT6=
EXTT7=
EXTT8=
EXTT9=
EXTT10=
PLAYORDER=
